<?xml version="1.0" encoding="utf-8"?>
<!-- Generator: Adobe Illustrator 21.1.0, SVG Export Plug-In . SVG Version: 6.00 Build 0)  -->
<svg version="1.1" id="Calque_1" xmlns="http://www.w3.org/2000/svg" xmlns:xlink="http://www.w3.org/1999/xlink" x="0px" y="0px"
	 viewBox="0 0 432 432" style="enable-background:new 0 0 432 432;" xml:space="preserve">
<style type="text/css">
	.st0{fill:#3B4F20;}
	.st1{fill:#8CB225;}
	.st2{fill:#020203;}
	.st3{fill:#4A5C2D;}
	.st4{fill:#FFFFFF;}
	.st5{fill:#E2CF1B;}
	.st6{fill:#718A2A;}
	.st7{fill:#DFBB20;}
	.st8{fill:#EAC839;}
	.st9{fill:#1B1B1B;}
	.st10{fill:#8EC045;}
	.st11{fill:#066938;}
	.st12{fill:#E5AD30;}
	.st13{fill:#4E4D4D;}
	.st14{fill:#8BB226;}
	.st15{fill:#CD1A25;}
	.st16{fill:#4B6426;}
	.st17{fill:#7D9E3C;}
	.st18{fill:#3C4F20;}
	.st19{fill:#384A1F;}
	.st20{fill:#E7E6E6;}
	.st21{fill:#D4A624;}
	.st22{fill:#F7F0E3;}
	.st23{fill:#D2A206;}
	.st24{fill:#CE9835;}
	.st25{fill:#E5D9C2;}
	.st26{fill:#E2AE42;}
	.st27{fill:#EEDBBE;}
	.st28{fill:#F9EA31;}
	.st29{fill:#EB6518;}
	.st30{fill:#0A7132;}
	.st31{fill:#FFE109;}
	.st32{fill:#D76013;}
	.st33{fill:#BBA763;}
	.st34{fill:#7FA22A;}
	.st35{fill:#5B321B;}
	.st36{fill:#4A2615;}
	.st37{fill:#D6AD08;}
	.st38{fill:#F7BBBD;}
	.st39{fill:#D76324;}
	.st40{fill:#607829;}
	.st41{fill:#715C3B;}
	.st42{fill:#644F34;}
	.st43{fill:#89704C;}
	.st44{fill:#B2A38F;}
	.st45{fill:#A59076;}
	.st46{fill:#FFDE0D;}
	.st47{fill:#34AA4A;}
	.st48{fill:#75388D;}
	.st49{fill:#BBBBBB;}
	.st50{fill:#A9A9AA;}
	.st51{fill:#06993B;}
	.st52{fill:#CDCCCC;}
	.st53{fill:#4D2563;}
	.st54{fill:#E3B320;}
	.st55{fill:#0B9541;}
	.st56{fill:#264D23;}
	.st57{fill:#FDC834;}
	.st58{fill:#8C633A;}
	.st59{fill:#B5A059;}
	.st60{fill:#F2F2F2;}
	.st61{fill:#808181;}
	.st62{fill:#62A930;}
	.st63{fill:#A1C746;}
	.st64{fill:#85B04B;}
	.st65{fill:#5E802C;}
	.st66{fill:#BFD783;}
	.st67{fill:#EFC9AF;}
	.st68{fill:#343434;}
	.st69{fill:#EB5B28;}
	.st70{fill:#D1A98D;}
	.st71{fill:#E0A9B8;}
	.st72{fill:#754D24;}
	.st73{fill:#B2D17B;}
	.st74{fill:#62B338;}
	.st75{fill:#274E22;}
	.st76{fill:#CCDC81;}
	.st77{fill-rule:evenodd;clip-rule:evenodd;fill:#85B04B;}
	.st78{fill:#509733;}
	.st79{fill:#203F1E;}
	.st80{fill:#20963A;}
	.st81{fill:#62246B;}
	.st82{fill:#FDCA02;}
	.st83{fill:#B4CD50;}
	.st84{fill:#5C792A;}
	.st85{fill:#C29347;}
	.st86{fill:#4D5C22;}
	.st87{fill:none;}
	.st88{fill:#E19C11;}
	.st89{fill:#E5C997;}
	.st90{fill:#009245;}
	.st91{fill:#48AE4D;}
	.st92{fill:#049348;}
	.st93{fill:#04683B;}
	.st94{fill:#F8AE4C;}
	.st95{fill:#C57B39;}
	.st96{fill:#231F20;}
	.st97{fill:#BC2333;}
	.st98{fill:#EF7A7B;}
	.st99{fill:#46AE51;}
	.st100{fill:#07924B;}
	.st101{fill-rule:evenodd;clip-rule:evenodd;fill:#231F20;}
	.st102{fill:#279A9A;}
	.st103{fill:#8E3189;}
	.st104{fill:#9F6E8E;}
	.st105{fill:#3C3C3B;}
	.st106{fill:#00A69C;}
	.st107{fill:#D5DB41;}
	.st108{fill:#E04542;}
	.st109{fill:#9F1F3B;}
	.st110{fill:#EB5C35;}
	.st111{fill:#F9B233;}
	.st112{fill:#008D36;}
	.st113{fill:#F39200;}
	.st114{fill:#F2D8BD;}
	.st115{fill:#3AAA35;}
	.st116{fill:#95C11F;}
	.st117{fill:#7F5FA5;}
	.st118{fill:#5FA55F;}
	.st119{fill:#A55F8F;}
	.st120{fill:#229538;}
	.st121{fill:#622369;}
	.st122{fill:#FCC804;}
	.st123{fill:#628FB8;}
	.st124{fill:#B2B2B2;}
	.st125{fill:#63B8A4;}
	.st126{fill:#FDCE6C;}
	.st127{fill:#C8DADC;}
	.st128{fill:#ED6B6E;}
	.st129{fill:#EC6365;}
	.st130{fill:#8FC14D;}
	.st131{fill:#FECE6C;}
	.st132{fill:#037132;}
	.st133{fill:#B5CD25;}
	.st134{fill:#137E35;}
	.st135{fill:#7DBA28;}
	.st136{fill:#50AE32;}
	.st137{fill:#04612D;}
	.st138{fill:#F0828B;}
	.st139{fill:#63348B;}
	.st140{fill:#CF75AC;}
	.st141{fill:#895B7E;}
	.st142{fill:#AD94C4;}
	.st143{fill:#C581AB;}
	.st144{fill:#D1BAB0;}
	.st145{fill:#EF7B7C;}
	.st146{fill:#F7C0C2;}
	.st147{fill:#4F1C31;}
	.st148{fill:#9C3760;}
	.st149{fill:#A8768F;}
	.st150{fill:#A04170;}
	.st151{fill:#6CB863;}
</style>
<g>
	<path class="st87" d="M139.8,226.5c-0.2,0.4-0.4,0.8-0.5,1.2c-0.1,0.2-0.2,0.4-0.3,0.6c-0.2,0.5-0.5,1.1-0.8,1.6
		c-0.6,1-1.2,1.5-1.8,1.6c-0.9,0.1-1.7-0.4-2.3-0.9l-0.8-0.7c-0.7-0.6-1.5-1.3-2.3-1.9c-1.1-0.8-2.2-1.4-3.5-1.8c0,0.1,0,0.1,0,0.2
		c0.3,1.2,0.7,2.4,1.1,3.7c1,3,2.1,6.5,3.8,9.8c0.5,1.1,0.8,1,1,0.9l0.1,0c0.2,0,0.5,0,0.7-0.1c0.3,0,0.6,0,0.9-0.1
		c2.8-0.8,6.4-1.9,9.7-3.9c0.9-0.5,1-0.6,0.7-1.6c-0.6-2.2-1.1-3.8-1.7-5.3c-0.7-1.8-1.6-3.6-2.4-5.3c-0.1-0.2-0.2-0.4-0.3-0.6
		c0,0.1-0.1,0.2-0.2,0.3C140.6,224.9,140.2,225.7,139.8,226.5z"/>
	<path class="st87" d="M75.1,195.3c-6.4,7.4-10.6,14.3-13,21.7c-2.2,6.7-3.6,12.7-4.4,18.5c-0.7,5.3-0.7,10.6-0.6,15
		c0,0.8,0.1,1.5,0.1,2.4c0,0,0,0,0,0c4.8-6.7,11.6-11.5,20.2-14.2c5.8-1.8,11.3-0.7,15.7,3.3l0-0.6c0-1.3-0.1-2.5-0.1-3.7l-0.1-4.2
		c-0.1-4.7-0.1-9.5-0.1-14.3c0-2.3,0.1-4.6,0.4-6.8c0.5-4.2,1.2-8.4,1.7-11.5c1.1-6.8,2.8-12.6,5.2-17.9c1.1-2.4,2.2-4.7,3.4-7.1
		c0.3-0.7,0.7-1.4,1-2C92.4,179.5,82.8,186.5,75.1,195.3z"/>
	<path class="st87" d="M197.7,181.4l-0.1-0.1c-2.5-2.2-5.1-4.4-7.7-6.5c-3.8-3.1-7.7-5.3-11.8-6.8c-2.3-0.8-4.6-1.5-6.9-2.3
		c-5.5-1.7-10.2-2.5-14.8-2.5c-5.2,0-9.5,0.1-13.8,0.9c-7.1,1.2-14.3,2.7-21.3,4.1l-0.7,0.1c-1.5,0.3-3.1,0.8-4.6,1.2
		c-0.3,0.1-0.6,0.2-0.9,0.3c1.3,0.3,2.6,0.7,3.9,1c3,0.7,6,1.5,9,2.5c9.3,3.3,17.9,8.1,25.5,14.5c5.5,4.5,9.6,9.2,12.6,14.3
		c1.4,2.4,2.7,4.9,4,7.4c0.6,1.1,1.2,2.3,1.8,3.4c0,0.1,0.1,0.1,0.1,0.2c0,0,0-0.1,0.1-0.1l0.2-0.3c4.1-7.2,10.1-12.7,17.9-16.2
		c5.9-2.7,11.7-2.3,17.1,1.2c-1.6-3.7-3.4-7.3-5.3-11C200.9,184.7,199.5,183,197.7,181.4z"/>
	<path class="st123" d="M212.2,201.5c-0.1-0.3-0.2-0.6-0.3-1c-0.2-0.7-0.5-1.4-0.8-2.1c-1.8-3.9-3.5-7.4-5.1-10.8
		c-1.7-3.4-3.9-6.4-6.5-8.8c-1.8-1.6-3.5-3.2-5.3-4.7c-4-3.3-8.8-6.9-14.5-8.9c-3.5-1.2-7.1-2.4-10.7-3.4c-2.8-0.8-5.4-1.3-7.8-1.5
		c-5.6-0.6-11.3-0.4-17.5,0.4c-4.2,0.6-8.4,1.3-12.4,2.1l-1.1,0.2c-6.7,1.2-12.3,2.4-17.8,4.3c0,0-0.1,0-0.2,0
		c0-0.1-0.1-0.2-0.1-0.3c-0.2-0.5-0.4-1.1-0.6-1.6c-0.6-1.2-1.3-2.4-2-3.7c-0.5-0.8-1.3-1.2-2.2-1c-1.5,0.3-2.8,1.2-3.5,2.5
		c-0.6,1.1-0.7,2.3-0.3,3.3c0.4,0.9,0.7,1.8,1,2.8c0.1,0.3,0.2,0.6,0.3,0.9l-0.4,0.2c-0.6,0.3-1.2,0.6-1.9,0.9
		c-12.2,5.6-22.1,12.9-30,22.1c-5.6,6.5-9.3,12.3-11.7,18.3c-4.4,11-6.7,22.4-6.7,33.7l0,0.5c0,3.4,0,6.9,0.6,10.3
		c0.1,0.8,0.3,1.5,0.6,2c0.2,0.4,0.8,0.8,1.4,0.8c0,0,0.1,0,0.1,0c0.6-0.1,1.2-0.7,1.2-1.3c0.2-1.3,0.9-2.4,1.7-3.5
		c4.5-6.4,10.8-10.8,19.2-13.4c2.4-0.7,4.9-0.7,7.6,0.2c1.8,0.6,3.3,1.5,4.6,2.7c0.4,0.4,0.8,0.8,1.3,1.2c0.5,0.5,0.9,0.9,1.4,1.4
		c0.7,0.7,1.3,0.9,1.9,0.8c0.6-0.1,1.2-0.5,1.6-1.4c0.2-0.4,0.4-0.7,0.5-1.1L98,245c0.2-0.4,0.4-0.9,0.6-1.3
		c0.3-0.8,0.7-1.6,1.1-2.5c0.9-1.9,2.2-4.4,4.1-6.5c5.4-5.7,11.4-8.7,18.5-9.1c0.8,0,1.5,0,2.2,0c0,0,0,0,0,0.1
		c0,0.6,0.1,1.1,0.3,1.7c1.1,4.3,2.6,8.4,4.2,12.1c2.8,6.4,4.6,3.7,6.1,4.1c0.1,0.5,0.2,0.9,0.4,1.4c0.3,1.3,0.6,2.5,1,3.7
		c4.2,13.4,8.4,26.6,13.4,39.7c1.6,4.3,3.2,8.7,4.6,13c1.1,3.2,2.2,6.5,3.4,9.7c1.4,3.9,2.9,7.5,4.5,10.8c2,4.1,4.4,7.2,7.3,9.6
		c2.7,2.2,5.7,3.4,8.7,3.4c0.6,0,1.2,0,1.7-0.1c2.7-0.4,5.4-1.3,8.3-3c3.5-1.9,5.8-4.8,6.8-8.6c0.4-1.7,0.8-3.3,0.9-5
		c0.2-4.6-1.1-8.8-4-12.6c-1-1.2-2.3-2.1-4-2.5c-1.6-0.4-3.3-0.1-4.8,0.8c-1.4,0.9-2.4,2.3-2.7,3.9c-0.4,2-0.3,3.9,0.4,5.7
		c0.5,1.2,0.9,2.6,1.5,4.4c0.3,1-0.1,1.8-1,2.3c-1.8,1-3.4,1.1-5,0.1c-1.3-0.8-2.3-1.9-3.2-3.4c-2.2-3.7-4.2-7.7-5.9-11.8
		c-3.9-9.3-6.6-18.9-9.4-28.7c-3.3-12.1-6.7-22-10.5-31.3c-0.5-1.3-1.1-2.6-1.6-4l-0.6-1.4l0.1-0.1c0.3-0.2,0.7-0.4,1-0.6
		c1.7-0.9,2.4-2.4,2-4.3l0-0.1c-0.2-1.1-0.4-2.3-0.8-3.3c-1.2-2.9-2.5-5.8-3.8-8.6l-0.8-1.8c1.2-1.5,2.7-2.9,4.3-4
		c2.8-1.8,5.7-3.1,8.8-3.9c1.7-0.5,3.3-0.7,4.9-0.6c3.1,0,5.6,1.1,7.4,3.1c0.5,0.5,0.9,1,1.3,1.3c0.7,0.6,1.3,0.9,1.9,0.8
		c0.6-0.1,1.2-0.4,1.7-1.1c0.4-0.6,0.8-1.2,1.3-2.1c1.1-2.1,2.5-4.1,4.3-6.2c3.5-4.1,7.7-7.2,12.4-9.2c5.5-2.4,10.6-1.9,15.3,1.6
		c1.2,0.9,2.2,1.7,3.1,2.5c0.4,0.3,1.1,1,2.1,0.4C212.7,203,212.3,201.9,212.2,201.5z M94.9,201c-0.5,3.1-1.2,7.3-1.7,11.5
		c-0.3,2.2-0.4,4.5-0.4,6.8c0,4.8,0.1,9.6,0.1,14.3l0.1,4.2c0,1.2,0,2.4,0.1,3.7l0,0.6c-4.5-4-9.9-5.2-15.7-3.3
		c-8.6,2.7-15.4,7.5-20.2,14.2c0,0,0,0,0,0c-0.1-0.9-0.1-1.7-0.1-2.4c-0.1-4.4-0.1-9.7,0.6-15c0.7-5.7,2.1-11.8,4.4-18.5
		c2.5-7.4,6.6-14.4,13-21.7c7.7-8.8,17.3-15.8,29.5-21.3c-0.3,0.7-0.7,1.4-1,2c-1.2,2.4-2.3,4.7-3.4,7.1
		C97.7,188.3,96,194.2,94.9,201z M121.3,222.7c-8.5,0.8-15.7,4.8-21.3,11.8c-1.7,2.2-2.9,4.7-4,7.1c0,0,0,0,0,0c0-0.3,0-0.6,0-0.9
		l-0.1-3c-0.1-3.9-0.2-7.9-0.3-11.8c-0.1-8,0.4-15.1,1.6-21.7l0-0.1c0.9-5,1.9-10.1,3.6-15c1.7-4.9,4-9.7,6.9-14.8
		c0.2-0.3,0.4-0.6,0.6-0.9l0.1-0.1c1.3,1,2.1,2.1,2.9,3.3c2.9,4.6,5.9,9.6,8.3,14.9c3.8,8.5,7.3,16.3,10.5,24.1
		c0.6,1.5,1.2,3.1,1.7,4.7c0.3,0.9,0.6,1.8,0.9,2.7c0,0,0,0.1,0,0.1c0.3,1.1,0.7,2.1,1,3.1c0,0,0,0,0,0c-1.1-0.9-2.3-1.7-3.5-2.3
		c-1.4-0.7-2.9-1.1-4.4-1.4C124.4,222.6,122.9,222.5,121.3,222.7z M141.4,224.6c0.8,1.7,1.6,3.5,2.4,5.3c1.6,3.8,2.5,6,1,6.9
		c-12.4,7.6-12.3,5.5-16.2-6.6c-0.4-1.2-0.8-2.4-1.1-3.7c0-0.1,0-0.1,0-0.2c1.3,0.4,2.4,1,3.5,1.8c0.8,0.6,1.5,1.2,2.3,1.9l0.8,0.7
		c0.6,0.5,1.4,1.1,2.3,0.9c0.7-0.1,1.2-0.6,1.8-1.6c0.3-0.5,0.6-1.1,0.8-1.6c0.1-0.2,0.2-0.4,0.3-0.6c0.2-0.4,0.4-0.8,0.5-1.2
		c0.3-0.8,0.7-1.6,1.1-2.3c0-0.1,0.1-0.2,0.2-0.3C141.2,224.1,141.3,224.4,141.4,224.6z M157.9,209.8c-6.1,1-11.3,3.6-15.6,7.6
		c-0.5,0.4-0.9,0.9-1.3,1.4c-0.8,0.9-1.5,1.9-2.1,2.9c-0.7,1.2-1.3,2.4-1.8,3.5c-0.1,0.2-0.2,0.5-0.3,0.8c-0.4-1.2-0.8-2.3-1.2-3.5
		c0-0.1-0.1-0.2-0.1-0.3c-0.3-0.8-0.5-1.7-0.8-2.5c-0.7-2-1.4-4.1-2.2-6c-4.2-10.1-8-19.2-12.6-28.1c-1.8-3.4-3.7-6.6-5.4-9.4
		c-0.7-1.1-1.4-2.1-2.2-3.1c-0.2-0.2-0.4-0.5-0.5-0.7c0.3,0,0.7,0.1,1,0.2c1.4,0.4,2.8,0.7,4.2,1.1c3.4,0.8,7,1.7,10.4,2.9
		c8.1,2.9,15.7,7.1,23.3,13c7,5.5,12.6,12.7,17.1,21.9C165,209.6,161.7,209.1,157.9,209.8z M190.1,196.4c-7.8,3.5-13.8,9-17.9,16.2
		l-0.2,0.3c0,0,0,0.1-0.1,0.1c0-0.1-0.1-0.1-0.1-0.2c-0.6-1.1-1.2-2.2-1.8-3.4c-1.3-2.4-2.6-5-4-7.4c-3-5.1-7.2-9.8-12.6-14.3
		c-7.7-6.3-16.3-11.2-25.5-14.5c-2.9-1-6-1.8-9-2.5c-1.3-0.3-2.6-0.6-3.9-1c0.3-0.1,0.6-0.2,0.9-0.3c1.5-0.5,3.1-0.9,4.6-1.2
		l0.7-0.1c7-1.4,14.2-2.9,21.3-4.1c4.3-0.7,8.7-0.9,13.8-0.9c4.6,0,9.3,0.8,14.8,2.5c2.4,0.7,4.7,1.4,6.9,2.3
		c4.1,1.5,7.9,3.7,11.8,6.8c2.6,2.1,5.2,4.3,7.7,6.5l0.1,0.1c1.8,1.6,3.3,3.3,4.2,5.2c1.9,3.6,3.6,7.2,5.3,11
		C201.8,194.1,196,193.7,190.1,196.4z"/>
	<g>
		<path class="st124" d="M376.9,117.3c-1.4-5-4.1-8.9-8.7-11.5c-4-2.2-8.4-3.3-13-3.4c-4.4-0.1-8.6,0.9-12.6,2.6
			c-0.4,0.2-0.9,0.3-1.4,0.5c0.2-0.5,0.5-0.8,0.7-1.1c1.8-2.1,3.2-4.4,4.3-6.9c0.8-2.1,1.3-4.2,1.1-6.5c-0.9-8.5-7.5-14.6-16-15
			c-5.7-0.3-11.1,1-16.2,3.5c-6,2.9-11.1,7.1-15.7,11.9c-0.3,0.4-0.7,0.7-1.2,1.2c0-0.6,0-0.9,0-1.3c0-2.3,0.2-4.5,0.1-6.8
			c-0.2-5.6-2.2-10.3-6.6-13.9c-2.4-2-5.3-3-8.4-3.1c-5.4-0.2-10.2,1.6-14.3,5c-3.1,2.5-5.3,5.7-7.2,9.2c-2.6,4.6-4.2,9.5-5.5,14.6
			c-0.2,0.7-0.4,1.5-0.7,2.3c-0.4-0.3-0.6-0.5-0.8-0.7c-0.9-0.8-1.7-1.7-2.6-2.5c-5-4.6-10.8-6.2-17.4-4.7c-5.2,1.2-9.5,4-13.1,7.9
			c-4.3,4.8-5.9,10.4-5.1,16.8c0.5,3.8,2,7.3,3.9,10.6c2.7,4.5,6.6,7.4,11.5,9.1c3.3,1.1,6.7,1.1,9.8-0.5c2.4-1.1,4.6-2.5,6.9-3.7
			c0.3-0.2,0.7-0.4,1.1-0.6c0.1,0.9,0.2,1.8,0.4,2.6c0.2,0.8,0.5,1.6,0.9,2.3c1.2,2.1,3.1,3,5.5,2.5c1-0.2,2-0.4,3.1-0.6
			c-0.1,0.4-0.1,0.7-0.1,1c-1.4,5.3-1.3,10.7-0.2,16c1.4,6.5,4.5,12,9.9,16c3.5,2.6,7.4,4.1,11.9,3.8c5.9-0.3,11-2.6,15.3-6.6
			c3.4-3.1,5.5-7,7.2-11.2c0.3-0.8,0.7-1.6,1-2.4c0.1,0,0.2,0,0.3,0c0,0.2,0.1,0.3,0.1,0.5c0.6,2.5,1,5,1.7,7.4
			c1.9,6.9,5.7,12.6,11.6,16.7c3.7,2.6,7.9,4,12.4,4.7c6,0.8,11.7-0.2,16.8-3.5c7.3-4.6,10.4-11.4,9.6-19.9c-0.3-3.5-1.4-6.8-3-10
			c-0.2-0.4-0.4-0.8-0.6-1.2c0.4,0,0.6,0,0.8,0c8-0.3,14.4-3.6,19.1-10C378.1,132,379,124.9,376.9,117.3z M281.3,105.5
			c-1.8,0-3.2-2.1-3.2-4.7s1.4-4.7,3.2-4.7s3.2,2.1,3.2,4.7S283.1,105.5,281.3,105.5z M314.6,133c-4.8,3-9.8,4.1-15.6,2.3
			c-4.2-1.5-7.3-4.4-8.3-9.2c-0.3-1.6-0.7-3.3-0.5-4.9c0.1-0.5,0.1-1.1,0.3-1.6c0.4-1.1,1.4-1.7,2.5-1.6c1.1,0.1,2,0.9,2.1,2
			c0.1,0.4,0.1,0.7,0,1.1c-0.2,1.7,0.2,3.4,0.7,5c0.9,2.8,3.1,4.1,5.7,4.7c3,0.7,6,0.3,8.7-1.2c0.6-0.4,1.3-0.7,2-1
			c1.3-0.6,2.6-0.2,3.2,1C316.2,130.8,315.9,132.2,314.6,133z M334.9,126.3c-2,1.6-4.6,1.8-5.6,0.4c-1.1-1.4-0.3-3.8,1.7-5.4
			c2-1.6,4.6-1.8,5.6-0.4C337.7,122.3,336.9,124.7,334.9,126.3z"/>
		<path class="st124" d="M278.5,178.1c0,0-4.3,3.5-4.3,7.9c0,4.4,1.9,7.9,4.3,7.9c2.4,0,4.3-3.5,4.3-7.9
			C282.8,181.6,278.5,178.1,278.5,178.1z"/>
		<path class="st124" d="M247.8,148.4c0,0-4.3,3.5-4.3,7.9s1.9,7.9,4.3,7.9s4.3-3.5,4.3-7.9S247.8,148.4,247.8,148.4z"/>
		<path class="st124" d="M258.8,183.5c0,0-4.3,3.5-4.3,7.9c0,4.4,1.9,7.9,4.3,7.9c2.4,0,4.3-3.5,4.3-7.9
			C263.1,187,258.8,183.5,258.8,183.5z"/>
		<path class="st124" d="M298.6,195.4c0,0-4.3,3.5-4.3,7.9c0,4.4,1.9,7.9,4.3,7.9c2.4,0,4.3-3.5,4.3-7.9
			C302.9,199,298.6,195.4,298.6,195.4z"/>
		<path class="st124" d="M298.3,220.8c0,0-4.3,3.5-4.3,7.9c0,4.4,1.9,7.9,4.3,7.9c2.4,0,4.3-3.5,4.3-7.9
			C302.6,224.4,298.3,220.8,298.3,220.8z"/>
		<path class="st124" d="M321.9,190.8c0,0-4.3,3.5-4.3,7.9c0,4.4,1.9,7.9,4.3,7.9c2.4,0,4.3-3.5,4.3-7.9
			C326.3,194.3,321.9,190.8,321.9,190.8z"/>
		<path class="st124" d="M271.8,210.3c0,0-4.3,3.5-4.3,7.9c0,4.4,1.9,7.9,4.3,7.9c2.4,0,4.3-3.5,4.3-7.9
			C276.1,213.8,271.8,210.3,271.8,210.3z"/>
		<path class="st124" d="M237.4,174c0,0-4.3,3.5-4.3,7.9c0,4.4,1.9,7.9,4.3,7.9c2.4,0,4.3-3.5,4.3-7.9
			C241.8,177.5,237.4,174,237.4,174z"/>
	</g>
	<path class="st125" d="M351.5,341.7c-0.3-2.2-0.9-4.3-1.5-6.4c-0.2-0.8-0.8-1.5-1.2-2.4c1.3-5.1,0.2-10.1-2-15
		c-2-4.4-5.5-7.2-10-8.8c-4.2-1.5-8.6-1.5-13-1.2c-3.6,0.3-7.1,0.5-10.7-0.4c-2.3-0.6-3.1-1.5-3.4-3.8c-0.2-1.4-0.3-2.7-0.2-4.1
		c0.4-6,0.9-11.9,1.4-17.9c0.5-5.4,0.9-10.9,0.1-16.3c-0.2-1.7-0.7-3.4-1.4-5c-0.6-1.6-1.8-2-3.5-1.8c-1.8,0.2-3.5,0.7-5.2,1.5
		c-2,0.9-3.9,1.7-5.9,2.4c-3.8,1.4-7.6,1.9-11.6,1.5c0,1.8,0,4.4,0,7.4c2,0.7,3.1,2,3.1,2s1.6-3.6,5.8-4.2c3.7-0.5,6.8,2.5,7.4,6.4
		c0.7,4.6-2,10.5-10.4,16.5c-2.2-0.8-4.1-1.6-5.8-2.5c0,7.1,0,14.3,0.1,20c0.3-0.2,0.7-0.4,1.2-0.5c2.3-0.4,3.8,1.2,3.8,1.2
		s0.8-2,3.2-2.5c2.1-0.4,3.8,1.3,4.2,3.5c0.5,2.5-0.9,5.9-5.5,9.4c-3.3-1-5.5-2.4-6.8-3.8c0,2.5,0.1,4.2,0.1,4.4
		c0.2,1.5,11-1.3,22.8-1.5c11.8-0.2,15.5,4,17.5,6.5c1.7,2.1,3.8,13,4.6,17.3c6.9-1.7,13.5-3.7,19.4-7.7c0.9,2.2,1.5,4.6,1.6,7
		c0.1,1.4-0.5,2.2-1.9,2.7c-2.2,0.8-4.4,1.6-6.7,2.3c-2.5,0.7-5,1.3-7.5,1.7c-2.2,0.4-4.5,0.3-6.7-1c-0.4-4.8-1.9-16.7-4.4-20.5
		c-3.8-5.6-11.5-7.7-19.2-6.4c-7.8,1.3-19.8,2.3-21,1.1c-1.3-1.3-0.4-9-0.6-13.7c-0.2-4.6-0.4-45.6-0.4-45.6
		c-0.1-0.9-0.1-1.7-0.2-2.4c-0.1-1.1-0.4-2.1-1.2-3c-0.8-0.8-1.1-1-2.1-0.6c-0.3,0.1-0.6,0.3-0.9,0.5c-7.8,4.3-16.2,6.3-25.1,5.7
		c-5.1-0.4-9.9-2-14.6-3.8c-0.1,0-0.2-0.1-0.3-0.2c-0.8-0.8-1.7-0.6-2.6-0.3c-1.3,0.4-2.3,1.2-3.1,2.3c-0.9,1.3-1.6,2.6-1.8,4.2
		c-0.4,3-0.9,6.1-1.1,9.2c-0.5,8.2-0.7,16.4,0,24.5c0.7,9.4,1.6,18.7,3,28c0.7,4.7,1.7,9.4,3.8,13.7c0.2,0.5,0.3,1.1,0.3,1.6
		c0.4,3.6,0.7,7.2,1.1,10.8c0.4,3.1,1.8,4.8,4.8,5.5c1.1,0.3,2.2,0.4,3.2,0.5c4.1,0.6,8.1,1.2,12.2,1.9c5.2,0.8,10.3,0.8,15.4-0.3
		c3.2-0.7,6.3-0.6,9.5,0.1c3.9,0.9,7.9,1.5,11.8,2.2c5,0.9,10,1.3,15.1,0.5c2.3-0.4,4.5-0.9,6.7-1.6c3.3-1,5.9-3.2,8.5-5.5
		c1.8-1.6,3.1-3.4,3.7-5.9c2.2,0.6,4.2,0.6,6.2,0.3c5-0.8,9.8-2.3,14.5-4.1C350.8,346.4,351.9,344.4,351.5,341.7z M308.8,302.1
		c-0.8,3.2-4.1,6.4-11.2,8.1c-5.5-4.8-7.1-9.1-6.3-12.3c0.7-2.7,3-4.7,5.6-4.1c2.9,0.7,3.8,3.4,3.8,3.4s2-1.9,4.9-1.2
		C308.3,296.5,309.5,299.3,308.8,302.1z M256.7,300.8c0.9-3.6,3.9-6.1,7.3-5.3c3.8,0.9,5,4.4,5,4.4s2.6-2.5,6.4-1.6
		c3.4,0.8,5,4.4,4.1,8c-1,4.1-5.4,8.3-14.6,10.6C257.7,310.6,255.7,304.9,256.7,300.8z M230.4,287.8c-1.2-3.8,0.3-7.9,3.8-9
		c4-1.3,7.1,1.3,7.1,1.3s1-3.8,5.1-5.1c3.6-1.1,7.1,1.4,8.3,5.2c1.4,4.4-0.4,10.7-7.7,18C236.8,296.4,231.8,292.2,230.4,287.8z
		 M232.4,319.1c-0.6-3.3,1-6.4,4.1-7c3.4-0.6,5.7,1.8,5.7,1.8s1.3-3,4.7-3.7c3.1-0.6,5.7,1.9,6.3,5.1c0.7,3.8-1.4,8.8-8.2,14
		C236.8,326.8,233.1,322.9,232.4,319.1z M323.7,354.5c-3.7,3.9-7.9,6.7-13.3,7.5c-5.4,0.8-10.8,0.8-16.2-0.2
		c-4.4-0.8-8.8-1.6-13.2-2.5c-3-0.6-5.9-0.4-8.8,0.2c-4.9,1-9.8,1.1-14.7,0.3c-4.7-0.7-9.4-1.4-14.1-2.1c-0.6-0.1-1.2-0.3-1.7-0.5
		c-1.3-0.4-2.1-1.3-2.2-2.6c-0.4-2.8-0.7-5.5-1.1-8.6c0.5,0.4,0.7,0.6,0.9,0.8c2.5,2.4,5.5,3.6,8.8,4c2.9,0.3,5.9,0.4,8.9,0.7
		c3.8,0.4,7.6,0.3,11.3,0.1c5.4-0.2,10.8-0.2,16.1,0c4,0.1,8,0.7,12,1.1c3.7,0.4,7.3,0.3,11,0c12.7-1.2,17-7.1,17.8-7.5
		c0.2,1.9,0.6,4.3,0.6,6.1C325.7,351.9,324.3,354,323.7,354.5z"/>
</g>
</svg>
